<svg width="200" height="200" viewBox="0 0 200 200" fill="none" xmlns="http://www.w3.org/2000/svg">
<circle cx="40" cy="75" r="25" fill="#444444"/>
<circle cx="100" cy="75" r="25" fill="#444444"/>
<circle cx="160" cy="75" r="25" fill="#444444"/>
<path d="M28.3663 139V115.301H36.663V110.358H14.0951V115.301H22.372V139H28.3663ZM39.6205 139H45.4163V126.853C45.4163 124.054 47.024 122.129 49.7631 122.129C52.403 122.129 53.7527 123.796 53.7527 126.535V139H59.5485V125.304C59.5485 120.382 56.8491 117.325 52.1251 117.325C48.8898 117.325 46.5675 118.834 45.4361 121.513H45.317V110.358H39.6205V139ZM63.2602 139H69.056V127.111C69.056 124.114 70.7233 122.367 73.5815 122.367C74.4151 122.367 75.2091 122.506 75.6854 122.704V117.603C75.2884 117.484 74.7128 117.385 74.038 117.385C71.5371 117.385 69.7308 118.854 68.9766 121.553H68.8575V117.722H63.2602V139ZM86.8999 121.553C89.4802 121.553 91.2468 123.419 91.3658 126.138H82.3347C82.5332 123.478 84.3593 121.553 86.8999 121.553ZM91.4452 132.49C90.9093 134.117 89.2817 135.169 87.1579 135.169C84.2005 135.169 82.2752 133.085 82.2752 130.048V129.691H96.9433V127.924C96.9433 121.454 93.0331 117.266 86.8404 117.266C80.5483 117.266 76.5786 121.672 76.5786 128.46C76.5786 135.268 80.5086 139.457 87.0587 139.457C92.3186 139.457 96.1295 136.658 96.7647 132.49H91.4452ZM109.488 121.553C112.068 121.553 113.834 123.419 113.954 126.138H104.922C105.121 123.478 106.947 121.553 109.488 121.553ZM114.033 132.49C113.497 134.117 111.869 135.169 109.746 135.169C106.788 135.169 104.863 133.085 104.863 130.048V129.691H119.531V127.924C119.531 121.454 115.621 117.266 109.428 117.266C103.136 117.266 99.1664 121.672 99.1664 128.46C99.1664 135.268 103.096 139.457 109.646 139.457C114.906 139.457 118.717 136.658 119.352 132.49H114.033ZM123.024 110.358V139H133.961C142.555 139 147.617 133.661 147.617 124.57C147.617 115.479 142.555 110.358 133.961 110.358H123.024ZM129.019 115.301H133.246C138.526 115.301 141.503 118.596 141.503 124.59C141.503 130.783 138.606 134.038 133.246 134.038H129.019V115.301ZM160.757 139.457C167.188 139.457 171.296 135.348 171.296 128.341C171.296 121.434 167.128 117.266 160.757 117.266C154.385 117.266 150.217 121.454 150.217 128.341C150.217 135.328 154.326 139.457 160.757 139.457ZM160.757 135.03C157.898 135.03 156.092 132.629 156.092 128.361C156.092 124.133 157.938 121.692 160.757 121.692C163.575 121.692 165.401 124.133 165.401 128.361C165.401 132.629 163.595 135.03 160.757 135.03ZM175.842 112.82V117.722H172.844V122.089H175.842V133.264C175.842 137.412 177.787 139.079 182.789 139.079C183.96 139.079 184.952 138.98 185.548 138.841V134.574C185.19 134.633 184.654 134.673 184.138 134.673C182.431 134.673 181.637 133.899 181.637 132.271V122.089H185.567V117.722H181.637V112.82H175.842Z" fill="#444444"/>
</svg>
