<svg width="70" height="35" viewBox="0 0 70 35" fill="none" xmlns="http://www.w3.org/2000/svg">
<g clip-path="url(#clip0_101_2)">
<circle cx="11" cy="10" r="10" fill="white"/>
<circle cx="35" cy="10" r="10" fill="white"/>
<circle cx="59" cy="10" r="10" fill="white"/>
<path d="M6.34651 35V25.5203H9.6652V23.5434H0.638044V25.5203H3.9488V35H6.34651ZM10.8482 35H13.1665V30.1411C13.1665 29.0216 13.8096 28.2515 14.9052 28.2515C15.9612 28.2515 16.5011 28.9184 16.5011 30.014V35H18.8194V29.5218C18.8194 27.5528 17.7396 26.3301 15.85 26.3301C14.5559 26.3301 13.627 26.9335 13.1744 28.0053H13.1268V23.5434H10.8482V35ZM20.3041 35H22.6224V30.2443C22.6224 29.0454 23.2893 28.3467 24.4326 28.3467C24.766 28.3467 25.0836 28.4023 25.2742 28.4817V26.4413C25.1154 26.3936 24.8851 26.3539 24.6152 26.3539C23.6148 26.3539 22.8923 26.9415 22.5906 28.0212H22.543V26.4889H20.3041V35ZM29.76 28.0212C30.7921 28.0212 31.4987 28.7675 31.5463 29.8552H27.9339C28.0133 28.7913 28.7437 28.0212 29.76 28.0212ZM31.5781 32.3959C31.3637 33.0469 30.7127 33.4677 29.8632 33.4677C28.6802 33.4677 27.9101 32.634 27.9101 31.4193V31.2764H33.7773V30.5698C33.7773 27.9815 32.2133 26.3063 29.7361 26.3063C27.2193 26.3063 25.6314 28.0689 25.6314 30.7842C25.6314 33.5074 27.2035 35.1826 29.8235 35.1826C31.9274 35.1826 33.4518 34.0631 33.7059 32.3959H31.5781ZM38.7951 28.0212C39.8272 28.0212 40.5338 28.7675 40.5814 29.8552H36.969C37.0484 28.7913 37.7788 28.0212 38.7951 28.0212ZM40.6132 32.3959C40.3988 33.0469 39.7478 33.4677 38.8983 33.4677C37.7153 33.4677 36.9452 32.634 36.9452 31.4193V31.2764H42.8124V30.5698C42.8124 27.9815 41.2483 26.3063 38.7712 26.3063C36.2544 26.3063 34.6665 28.0689 34.6665 30.7842C34.6665 33.5074 36.2386 35.1826 38.8586 35.1826C40.9625 35.1826 42.4869 34.0631 42.741 32.3959H40.6132ZM44.2098 23.5434V35H48.5844C52.0222 35 54.0467 32.8643 54.0467 29.228C54.0467 25.5917 52.0222 23.5434 48.5844 23.5434H44.2098ZM46.6075 25.5203H48.2986C50.4105 25.5203 51.6014 26.8382 51.6014 29.236C51.6014 31.7131 50.4422 33.0151 48.2986 33.0151H46.6075V25.5203ZM59.3027 35.1826C61.875 35.1826 63.5185 33.5391 63.5185 30.7365C63.5185 27.9736 61.8512 26.3063 59.3027 26.3063C56.7541 26.3063 55.0868 27.9815 55.0868 30.7365C55.0868 33.5312 56.7303 35.1826 59.3027 35.1826ZM59.3027 33.4121C58.1594 33.4121 57.4369 32.4514 57.4369 30.7445C57.4369 29.0533 58.1753 28.0768 59.3027 28.0768C60.4301 28.0768 61.1605 29.0533 61.1605 30.7445C61.1605 32.4514 60.438 33.4121 59.3027 33.4121ZM65.3366 24.5279V26.4889H64.1378V28.2356H65.3366V32.7055C65.3366 34.3648 66.1147 35.0318 68.1155 35.0318C68.5839 35.0318 68.9809 34.9921 69.219 34.9365V33.2295C69.0761 33.2533 68.8618 33.2692 68.6553 33.2692C67.9725 33.2692 67.655 32.9596 67.655 32.3085V28.2356H69.227V26.4889H67.655V24.5279H65.3366Z" fill="white"/>
</g>
<defs>
<clipPath id="clip0_101_2">
<rect width="70" height="35" fill="white"/>
</clipPath>
</defs>
</svg>
