<svg width="348" height="177" viewBox="0 0 348 177" fill="none" xmlns="http://www.w3.org/2000/svg">
<g clip-path="url(#clip0_101_9)">
<circle cx="54" cy="50" r="50" fill="white"/>
<circle cx="174" cy="50" r="50" fill="white"/>
<circle cx="294" cy="50" r="50" fill="white"/>
<path d="M30.7326 177V129.601H47.326V119.717H2.19023V129.601H18.744V177H30.7326ZM53.2409 177H64.8325V152.705C64.8325 147.108 68.048 143.257 73.5262 143.257C78.806 143.257 81.5054 146.592 81.5054 152.07V177H93.097V149.609C93.097 139.764 87.6981 133.651 78.2502 133.651C71.7795 133.651 67.135 136.668 64.8722 142.027H64.634V119.717H53.2409V177ZM100.52 177H112.112V153.221C112.112 147.227 115.447 143.734 121.163 143.734C122.83 143.734 124.418 144.012 125.371 144.409V134.206C124.577 133.968 123.426 133.77 122.076 133.77C117.074 133.77 113.462 136.707 111.953 142.106H111.715V134.445H100.52V177ZM147.8 142.106C152.96 142.106 156.494 145.838 156.732 151.276H138.669C139.066 145.957 142.719 142.106 147.8 142.106ZM156.89 163.979C155.819 167.234 152.563 169.338 148.316 169.338C142.401 169.338 138.55 165.17 138.55 159.097V158.382H167.887V154.849C167.887 141.908 160.066 133.531 147.681 133.531C135.097 133.531 127.157 142.344 127.157 155.921C127.157 169.537 135.017 177.913 148.117 177.913C158.637 177.913 166.259 172.316 167.529 163.979H156.89ZM192.975 142.106C198.136 142.106 201.669 145.838 201.907 151.276H183.845C184.242 145.957 187.894 142.106 192.975 142.106ZM202.066 163.979C200.994 167.234 197.739 169.338 193.491 169.338C187.576 169.338 183.726 165.17 183.726 159.097V158.382H213.062V154.849C213.062 141.908 205.242 133.531 192.856 133.531C180.272 133.531 172.333 142.344 172.333 155.921C172.333 169.537 180.193 177.913 193.293 177.913C203.813 177.913 211.435 172.316 212.705 163.979H202.066ZM220.049 119.717V177H241.922C259.111 177 269.234 166.321 269.234 148.14C269.234 129.959 259.111 119.717 241.922 119.717H220.049ZM232.037 129.601H240.493C251.052 129.601 257.007 136.191 257.007 148.18C257.007 160.565 251.211 167.076 240.493 167.076H232.037V129.601ZM295.513 177.913C308.375 177.913 316.593 169.696 316.593 155.683C316.593 141.868 308.256 133.531 295.513 133.531C282.771 133.531 274.434 141.908 274.434 155.683C274.434 169.656 282.651 177.913 295.513 177.913ZM295.513 169.061C289.797 169.061 286.184 164.257 286.184 155.722C286.184 147.267 289.876 142.384 295.513 142.384C301.15 142.384 304.802 147.267 304.802 155.722C304.802 164.257 301.19 169.061 295.513 169.061ZM325.683 124.639V134.445H319.689V143.178H325.683V165.527C325.683 173.824 329.574 177.159 339.577 177.159C341.919 177.159 343.904 176.96 345.095 176.682V168.148C344.381 168.267 343.309 168.346 342.277 168.346C338.863 168.346 337.275 166.798 337.275 163.543V143.178H345.135V134.445H337.275V124.639H325.683Z" fill="white"/>
</g>
<defs>
<clipPath id="clip0_101_9">
<rect width="348" height="177" fill="white"/>
</clipPath>
</defs>
</svg>
